<?xml version="1.0" encoding="utf-8"?>
<!-- Generator: Adobe Illustrator 24.0.1, SVG Export Plug-In . SVG Version: 6.00 Build 0)  -->
<svg version="1.1" id="Layer_1" xmlns="http://www.w3.org/2000/svg" xmlns:xlink="http://www.w3.org/1999/xlink" x="0px" y="0px"
	 viewBox="0 0 1400 360" style="enable-background:new 0 0 1400 360;" xml:space="preserve">
<style type="text/css">
	.st0{fill:#FFF0EC;}
	.st1{fill:url(#SVGID_1_);}
	.st2{fill:#FFD3C7;}
	.st3{fill:none;stroke:#FFD1C5;stroke-width:4.1462;stroke-linecap:round;stroke-linejoin:round;}
	.st4{fill:none;stroke:#FFF0EC;stroke-width:1.3821;stroke-miterlimit:10;}
	.st5{fill:#94DEE2;}
	.st6{fill:none;stroke:#FFF0EC;stroke-width:2.7641;stroke-linecap:round;stroke-miterlimit:10;}
	.st7{fill:none;stroke:#FFD1C5;stroke-width:1.3821;stroke-miterlimit:10;}
	.st8{fill:none;stroke:#FFD1C5;stroke-width:1.3352;stroke-miterlimit:10;}
	.st9{fill:#E1FAF9;}
	.st10{fill:#FF6F47;}
	.st11{fill:#FFFFFF;}
	.st12{fill:none;stroke:#FF6F47;stroke-width:2;stroke-linecap:round;stroke-linejoin:round;stroke-dasharray:0,8;}
	.st13{fill:none;stroke:#FF6F47;stroke-miterlimit:10;}
	.st14{fill:none;stroke:#FF6F47;stroke-width:1.25;stroke-miterlimit:10;}
	.st15{fill:none;stroke:#FF6F47;stroke-width:0.9797;stroke-miterlimit:10;}
</style>
<path class="st0" d="M0,0h1400v360H0V0z"/>
<linearGradient id="SVGID_1_" gradientUnits="userSpaceOnUse" x1="700" y1="362" x2="700" y2="262" gradientTransform="matrix(1 0 0 -1 0 362)">
	<stop  offset="0" style="stop-color:#FFFFFF"/>
	<stop  offset="1" style="stop-color:#FFFFFF;stop-opacity:0"/>
</linearGradient>
<path class="st1" d="M0,0h1400v100H0V0z"/>
<path class="st2" d="M1067,350.9h44.2v59.4H1067V350.9z"/>
<path class="st2" d="M927.4,242.9v-51.1h-62.3v51.1h-35v168.5h132.2V242.9H927.4z"/>
<path class="st0" d="M869.8,198.1h12.4V211h-12.4V198.1z"/>
<path class="st0" d="M890,198.1h12.4V211H890V198.1z"/>
<path class="st0" d="M910.3,198.1h12.4V211h-12.4V198.1z"/>
<path class="st0" d="M869.8,217h12.4v12.9h-12.4V217z"/>
<path class="st0" d="M890,217h12.4v12.9H890V217z"/>
<path class="st0" d="M910.3,217h12.4v12.9h-12.4V217z"/>
<path class="st0" d="M869.8,235.9h12.4v12.9h-12.4V235.9z"/>
<path class="st0" d="M890,235.9h12.4v12.9H890V235.9z"/>
<path class="st0" d="M910.3,235.9h12.4v12.9h-12.4V235.9z"/>
<path class="st0" d="M902.1,265.6h12.4v12.9h-12.4V265.6z"/>
<path class="st0" d="M922.4,265.6h12.4v12.9h-12.4V265.6z"/>
<path class="st0" d="M942.7,265.6h12.4v12.9h-12.4V265.6z"/>
<path class="st0" d="M837.4,265.6h12.4v12.9h-12.4V265.6z"/>
<path class="st0" d="M857.6,265.6h12.4v12.9h-12.4V265.6z"/>
<path class="st0" d="M877.9,265.6h12.4v12.9h-12.4V265.6z"/>
<path class="st0" d="M902.1,283.8h12.4v12.9h-12.4V283.8z"/>
<path class="st0" d="M922.4,283.8h12.4v12.9h-12.4V283.8z"/>
<path class="st0" d="M942.7,283.8h12.4v12.9h-12.4V283.8z"/>
<path class="st0" d="M837.4,283.8h12.4v12.9h-12.4V283.8z"/>
<path class="st0" d="M857.6,283.8h12.4v12.9h-12.4V283.8z"/>
<path class="st0" d="M877.9,283.8h12.4v12.9h-12.4V283.8z"/>
<path class="st0" d="M902.1,302h12.4v12.9h-12.4V302z"/>
<path class="st0" d="M922.4,302h12.4v12.9h-12.4V302z"/>
<path class="st0" d="M942.7,302h12.4v12.9h-12.4V302z"/>
<path class="st0" d="M837.4,302h12.4v12.9h-12.4V302z"/>
<path class="st0" d="M857.6,302h12.4v12.9h-12.4V302z"/>
<path class="st0" d="M877.9,302h12.4v12.9h-12.4V302z"/>
<path class="st0" d="M902.1,320.2h12.4v12.9h-12.4V320.2z"/>
<path class="st0" d="M922.4,320.2h12.4v12.9h-12.4V320.2z"/>
<path class="st0" d="M942.7,320.2h12.4v12.9h-12.4V320.2z"/>
<path class="st0" d="M837.4,320.2h12.4v12.9h-12.4V320.2z"/>
<path class="st0" d="M857.6,320.2h12.4v12.9h-12.4V320.2z"/>
<path class="st0" d="M877.9,320.2h12.4v12.9h-12.4V320.2z"/>
<path class="st0" d="M902.1,338.4h12.4v12.9h-12.4V338.4z"/>
<path class="st0" d="M922.4,338.4h12.4v12.9h-12.4V338.4z"/>
<path class="st0" d="M942.7,338.4h12.4v12.9h-12.4V338.4z"/>
<path class="st0" d="M837.4,338.4h12.4v12.9h-12.4V338.4z"/>
<path class="st0" d="M857.6,338.4h12.4v12.9h-12.4V338.4z"/>
<path class="st0" d="M877.9,338.4h12.4v12.9h-12.4V338.4z"/>
<path class="st0" d="M902.1,356.6h12.4v12.9h-12.4V356.6z"/>
<path class="st0" d="M922.4,356.6h12.4v12.9h-12.4V356.6z"/>
<path class="st0" d="M942.7,356.6h12.4v12.9h-12.4V356.6z"/>
<path class="st0" d="M837.4,356.6h12.4v12.9h-12.4V356.6z"/>
<path class="st0" d="M857.6,356.6h12.4v12.9h-12.4V356.6z"/>
<path class="st0" d="M877.9,356.6h12.4v12.9h-12.4V356.6z"/>
<path class="st0" d="M828.5,252.3h135.9v6.3H828.5V252.3z"/>
<ellipse class="st2" cx="1048.6" cy="294" rx="26.3" ry="18.1"/>
<path class="st0" d="M949.1,335.4h125.8v76.1H949.1V335.4z"/>
<path class="st0" d="M1022.4,294h52.5v117.6h-52.5L1022.4,294z"/>
<path class="st2" d="M1028.9,301.7h9v9h-9V301.7z"/>
<path class="st2" d="M1044.1,301.7h9v9h-9V301.7z"/>
<path class="st2" d="M1059.3,301.7h9v9h-9V301.7z"/>
<path class="st2" d="M1028.9,316h9v9h-9V316z"/>
<path class="st2" d="M1044.1,316h9v9h-9V316z"/>
<path class="st2" d="M1059.3,316h9v9h-9V316z"/>
<path class="st2" d="M1028.9,329.8h9v9h-9V329.8z"/>
<path class="st2" d="M1044.1,329.8h9v9h-9V329.8z"/>
<path class="st2" d="M1059.3,329.8h9v9h-9V329.8z"/>
<path class="st2" d="M1028.9,343.5h9v9h-9V343.5z"/>
<path class="st2" d="M1044.1,343.5h9v9h-9V343.5z"/>
<path class="st2" d="M953.9,345.2h64.6v5.7h-64.6V345.2z"/>
<path class="st2" d="M953.9,359h64.6v5.7h-64.6V359z"/>
<path class="st2" d="M1059.3,343.5h9v9h-9V343.5z"/>
<path class="st2" d="M1028.9,357.3h9v9h-9V357.3z"/>
<path class="st2" d="M1044.1,357.3h9v9h-9V357.3z"/>
<path class="st2" d="M1059.3,357.3h9v9h-9V357.3z"/>
<path class="st2" d="M1077.6,294.1c0,1.3-1.1,2.4-2.4,2.4H1021c-1.3,0-2.4-1.1-2.4-2.4c0-1.3,1.1-2.4,2.4-2.4l0,0h54.2
	C1076.6,291.7,1077.6,292.7,1077.6,294.1z"/>
<path class="st0" d="M717.3-42.8h95.4v453.3h-95.4V-42.8z"/>
<path class="st3" d="M726.9,3.5h18.3"/>
<path class="st3" d="M755.6,3.5h18.3"/>
<path class="st3" d="M784.3,3.5h18.3"/>
<path class="st3" d="M726.9,19.4h18.3"/>
<path class="st3" d="M755.6,19.4h18.3"/>
<path class="st3" d="M784.3,19.4h18.3"/>
<path class="st3" d="M726.9,35.3h18.3"/>
<path class="st3" d="M755.6,35.3h18.3"/>
<path class="st3" d="M784.3,35.3h18.3"/>
<path class="st3" d="M726.9,51.2h18.3"/>
<path class="st3" d="M755.6,51.2h18.3"/>
<path class="st3" d="M784.3,51.2h18.3"/>
<path class="st3" d="M726.9,67.1h18.3"/>
<path class="st3" d="M755.6,67.1h18.3"/>
<path class="st3" d="M784.3,67.1h18.3"/>
<path class="st3" d="M726.9,83h18.3"/>
<path class="st3" d="M755.6,83h18.3"/>
<path class="st3" d="M784.3,83h18.3"/>
<path class="st3" d="M726.9,157.1h18.3"/>
<path class="st3" d="M755.6,157.1h18.3"/>
<path class="st3" d="M784.3,157.1h18.3"/>
<path class="st3" d="M726.9,173h18.3"/>
<path class="st3" d="M755.6,173h18.3"/>
<path class="st3" d="M784.3,173h18.3"/>
<path class="st3" d="M726.9,190.3h18.3"/>
<path class="st3" d="M755.6,190.3h18.3"/>
<path class="st3" d="M784.3,190.3h18.3"/>
<path class="st3" d="M726.9,207.6h18.3"/>
<path class="st3" d="M755.6,207.6h18.3"/>
<path class="st3" d="M784.3,207.6h18.3"/>
<path class="st3" d="M726.9,224.9h18.3"/>
<path class="st3" d="M755.6,224.9h18.3"/>
<path class="st3" d="M784.3,224.9h18.3"/>
<path class="st3" d="M726.9,242.1h18.3"/>
<path class="st3" d="M755.6,242.1h18.3"/>
<path class="st3" d="M784.3,242.1h18.3"/>
<path class="st3" d="M726.9,259.4h18.3"/>
<path class="st3" d="M755.6,259.4h18.3"/>
<path class="st3" d="M784.3,259.4h18.3"/>
<path class="st3" d="M726.9,276.7h18.3"/>
<path class="st3" d="M755.6,276.7h18.3"/>
<path class="st3" d="M784.3,276.7h18.3"/>
<path class="st3" d="M726.9,294h18.3"/>
<path class="st3" d="M755.6,294h18.3"/>
<path class="st3" d="M784.3,294h18.3"/>
<path class="st3" d="M726.9,311.2h18.3"/>
<path class="st3" d="M755.6,311.2h18.3"/>
<path class="st3" d="M784.3,311.2h18.3"/>
<path class="st3" d="M726.9,328.5h18.3"/>
<path class="st3" d="M755.6,328.5h18.3"/>
<path class="st3" d="M784.3,328.5h18.3"/>
<path class="st3" d="M726.9,345.8h18.3"/>
<path class="st3" d="M755.6,345.8h18.3"/>
<path class="st3" d="M784.3,345.8h18.3"/>
<path class="st2" d="M717.3,92.6h95.4v6.9h-95.4V92.6z"/>
<path class="st2" d="M717.3,140.6h95.4v6.9h-95.4V140.6z"/>
<path class="st2" d="M578,175.6h97.8v234.7H578V175.6z"/>
<path class="st4" d="M578,192.6h97.8"/>
<path class="st4" d="M578,209.7h97.8"/>
<path class="st4" d="M578,226.7h97.8"/>
<path class="st4" d="M578,243.7h97.8"/>
<path class="st4" d="M578,260.8h97.8"/>
<path class="st4" d="M578,277.8h97.8"/>
<path class="st4" d="M578,294.9h97.8"/>
<path class="st4" d="M578,311.9h97.8"/>
<path class="st4" d="M578,329h97.8"/>
<path class="st4" d="M578,346h97.8"/>
<path class="st4" d="M607.4,175.7v204.2"/>
<path class="st4" d="M626,175.7v204.2"/>
<path class="st4" d="M644.7,175.7v204.2"/>
<path class="st4" d="M663.4,175.7v204.2"/>
<path class="st4" d="M590.3,175.7v204.2"/>
<path class="st2" d="M443.2,128.1h102.7v282.2H443.2V128.1z"/>
<path class="st2" d="M453.5,84.3h82v45.1h-82L453.5,84.3z"/>
<path class="st2" d="M463.9,55.8h61.3v29.9h-61.3V55.8z"/>
<path class="st2" d="M475.9,34.5h37.3v22.1h-37.3V34.5z"/>
<path class="st0" d="M451.4,137.3h21.7v15.2h-21.7V137.3z"/>
<path class="st0" d="M483,137.3h21.7v15.2H483V137.3z"/>
<path class="st0" d="M514.5,152.5l0-15.2l21.7,0l0,15.2L514.5,152.5z"/>
<path class="st0" d="M461.1,93.1h17.8v12.5h-17.8V93.1z"/>
<path class="st0" d="M487,93.1h17.8v12.5H487V93.1z"/>
<path class="st0" d="M512.9,93.1h17.8v12.5h-17.8V93.1z"/>
<path class="st0" d="M469,58.4h13.3v9.3H469V58.4z"/>
<path class="st0" d="M488.4,58.4h13.3v9.3h-13.3V58.4z"/>
<path class="st0" d="M507.7,58.4H521v9.3h-13.3V58.4z"/>
<path class="st0" d="M469,71.8h13.3v9.3H469V71.8z"/>
<path class="st0" d="M488.4,71.8h13.3v9.3h-13.3V71.8z"/>
<path class="st0" d="M507.7,71.8H521v9.3h-13.3V71.8z"/>
<path class="st0" d="M461.1,110.6h17.8V123h-17.8V110.6z"/>
<path class="st0" d="M487,110.6h17.8V123H487V110.6z"/>
<path class="st0" d="M512.9,110.6h17.8V123h-17.8V110.6z"/>
<path class="st0" d="M451.4,162.9h21.7v15.2h-21.7V162.9z"/>
<path class="st0" d="M483,162.9h21.7v15.2H483V162.9z"/>
<path class="st0" d="M514.6,162.9h21.7v15.2h-21.7V162.9z"/>
<path class="st5" d="M451.4,188.5h21.7v15.2h-21.7V188.5z"/>
<path class="st0" d="M483,188.5h21.7v15.2H483V188.5z"/>
<path class="st0" d="M514.6,188.5h21.7v15.2h-21.7V188.5z"/>
<path class="st5" d="M451.4,214h21.7v15.2h-21.7V214z"/>
<path class="st0" d="M483,214h21.7v15.2H483V214z"/>
<path class="st0" d="M514.6,214h21.7v15.2h-21.7V214z"/>
<path class="st5" d="M451.4,239.6h21.7v15.2h-21.7V239.6z"/>
<path class="st0" d="M483,239.6h21.7v15.2H483V239.6z"/>
<path class="st5" d="M514.6,239.6h21.7v15.2h-21.7V239.6z"/>
<path class="st5" d="M451.4,265.2h21.7v15.2h-21.7V265.2z"/>
<path class="st0" d="M483,265.2h21.7v15.2H483V265.2z"/>
<path class="st5" d="M514.6,265.2h21.7v15.2h-21.7V265.2z"/>
<path class="st5" d="M451.4,290.7h21.7v15.2h-21.7V290.7z"/>
<path class="st0" d="M483,290.7h21.7v15.2H483V290.7z"/>
<path class="st5" d="M514.6,290.7h21.7v15.2h-21.7V290.7z"/>
<path class="st5" d="M451.4,316.3h21.7v15.2h-21.7V316.3z"/>
<path class="st0" d="M483,316.3h21.7v15.2H483V316.3z"/>
<path class="st5" d="M514.6,316.3h21.7v15.2h-21.7V316.3z"/>
<path class="st5" d="M451.4,341.9h21.7v15.2h-21.7V341.9z"/>
<path class="st0" d="M483,341.9h21.7v15.2H483V341.9z"/>
<path class="st5" d="M514.6,341.9h21.7v15.2h-21.7V341.9z"/>
<path class="st0" d="M266.7,302.7h46.1V323h-46.1V302.7z"/>
<path class="st2" d="M275.7,305.5h28.1V323h-28.1V305.5z"/>
<path class="st2" d="M249.7,321.6h80.2V411h-80.2V321.6z"/>
<path class="st0" d="M252.2,323.7h75.1v62.4h-75.1V323.7z"/>
<path class="st0" d="M323.8,332.2c0,2-1.6,3.7-3.7,3.7h-60.8c-2,0-3.7-1.6-3.7-3.7c0-2,1.6-3.7,3.7-3.7c0,0,0,0,0,0h60.8
	C322.2,328.5,323.8,330.2,323.8,332.2C323.8,332.2,323.8,332.2,323.8,332.2z"/>
<path class="st0" d="M323.8,343c0,2-1.6,3.7-3.7,3.7h-60.8c-2,0-3.7-1.6-3.7-3.7c0-2,1.6-3.7,3.7-3.7c0,0,0,0,0,0h60.8
	C322.2,339.3,323.8,341,323.8,343C323.8,343,323.8,343,323.8,343z"/>
<path class="st0" d="M323.8,353.8c0,2-1.6,3.7-3.7,3.7h-60.8c-2,0-3.7-1.6-3.7-3.7c0-2,1.6-3.7,3.7-3.7c0,0,0,0,0,0h60.8
	C322.2,350.2,323.8,351.8,323.8,353.8C323.8,353.8,323.8,353.8,323.8,353.8z"/>
<path class="st2" d="M368.1,178.3c0-1.5-1.2-2.8-2.8-2.8h-8.9c-1.5,0-2.8,1.2-2.8,2.8c0,1.5,1.2,2.8,2.8,2.8c0,0,0,0,0,0h8.9
	C366.8,181.1,368.1,179.9,368.1,178.3L368.1,178.3L368.1,178.3z"/>
<path class="st2" d="M359.4,81.4h2.9v95.6h-2.9V81.4z"/>
<path class="st0" d="M336.5,178.3h139.6V411H336.5V178.3z"/>
<path class="st2" d="M336.5,178.3h139.6v207.8H336.5V178.3z"/>
<path class="st0" d="M347.2,184.5H360c0.9,0,1.7,0.8,1.7,1.7v6.4c0,0.9-0.8,1.7-1.7,1.7h-12.8c-0.9,0-1.7-0.8-1.7-1.7v-6.4
	C345.5,185.3,346.3,184.5,347.2,184.5z"/>
<path class="st0" d="M368.4,184.5h12.8c0.9,0,1.7,0.8,1.7,1.7v6.4c0,0.9-0.8,1.7-1.7,1.7h-12.8c-0.9,0-1.7-0.8-1.7-1.7v-6.4
	C366.7,185.3,367.5,184.5,368.4,184.5z"/>
<path class="st0" d="M389.7,184.5h12.8c0.9,0,1.7,0.8,1.7,1.7v6.4c0,0.9-0.8,1.7-1.7,1.7h-12.8c-0.9,0-1.7-0.8-1.7-1.7v-6.4
	C388,185.3,388.8,184.5,389.7,184.5z"/>
<path class="st0" d="M410.9,184.5h12.8c0.9,0,1.7,0.8,1.7,1.7v6.4c0,0.9-0.8,1.7-1.7,1.7h-12.8c-0.9,0-1.7-0.8-1.7-1.7v-6.4
	C409.2,185.3,410,184.5,410.9,184.5z"/>
<path class="st0" d="M432.2,184.5H445c0.9,0,1.7,0.8,1.7,1.7v6.4c0,0.9-0.8,1.7-1.7,1.7h-12.8c-0.9,0-1.7-0.8-1.7-1.7v-6.4
	C430.5,185.3,431.2,184.5,432.2,184.5z"/>
<path class="st0" d="M453.4,184.5h12.8c0.9,0,1.7,0.8,1.7,1.7v6.4c0,0.9-0.8,1.7-1.7,1.7h-12.8c-0.9,0-1.7-0.8-1.7-1.7v-6.4
	C451.7,185.3,452.5,184.5,453.4,184.5z"/>
<path class="st0" d="M347.2,327.3H360c0.9,0,1.7,0.8,1.7,1.7v6.4c0,0.9-0.8,1.7-1.7,1.7h-12.8c-0.9,0-1.7-0.8-1.7-1.7V329
	C345.5,328.1,346.3,327.3,347.2,327.3z"/>
<path class="st0" d="M368.4,327.3h12.8c0.9,0,1.7,0.8,1.7,1.7v6.4c0,0.9-0.8,1.7-1.7,1.7h-12.8c-0.9,0-1.7-0.8-1.7-1.7V329
	C366.7,328.1,367.5,327.3,368.4,327.3z"/>
<path class="st0" d="M389.7,327.3h12.8c0.9,0,1.7,0.8,1.7,1.7v6.4c0,0.9-0.8,1.7-1.7,1.7h-12.8c-0.9,0-1.7-0.8-1.7-1.7V329
	C388,328.1,388.8,327.3,389.7,327.3z"/>
<path class="st0" d="M410.9,327.3h12.8c0.9,0,1.7,0.8,1.7,1.7v6.4c0,0.9-0.8,1.7-1.7,1.7h-12.8c-0.9,0-1.7-0.8-1.7-1.7V329
	C409.2,328.1,410,327.3,410.9,327.3z"/>
<path class="st0" d="M432.2,327.3H445c0.9,0,1.7,0.8,1.7,1.7v6.4c0,0.9-0.8,1.7-1.7,1.7h-12.8c-0.9,0-1.7-0.8-1.7-1.7V329
	C430.5,328.1,431.2,327.3,432.2,327.3z"/>
<path class="st0" d="M453.4,327.3h12.8c0.9,0,1.7,0.8,1.7,1.7v6.4c0,0.9-0.8,1.7-1.7,1.7h-12.8c-0.9,0-1.7-0.8-1.7-1.7V329
	C451.7,328.1,452.5,327.3,453.4,327.3z"/>
<path class="st0" d="M347.2,341.8H360c0.9,0,1.7,0.8,1.7,1.7v6.4c0,0.9-0.8,1.7-1.7,1.7h-12.8c-0.9,0-1.7-0.8-1.7-1.7v-6.4
	C345.5,342.6,346.3,341.8,347.2,341.8z"/>
<path class="st0" d="M368.4,341.8h12.8c0.9,0,1.7,0.8,1.7,1.7v6.4c0,0.9-0.8,1.7-1.7,1.7h-12.8c-0.9,0-1.7-0.8-1.7-1.7v-6.4
	C366.7,342.6,367.5,341.8,368.4,341.8z"/>
<path class="st0" d="M389.7,341.8h12.8c0.9,0,1.7,0.8,1.7,1.7v6.4c0,0.9-0.8,1.7-1.7,1.7h-12.8c-0.9,0-1.7-0.8-1.7-1.7v-6.4
	C388,342.6,388.8,341.8,389.7,341.8z"/>
<path class="st0" d="M410.9,341.8h12.8c0.9,0,1.7,0.8,1.7,1.7v6.4c0,0.9-0.8,1.7-1.7,1.7h-12.8c-0.9,0-1.7-0.8-1.7-1.7v-6.4
	C409.2,342.6,410,341.8,410.9,341.8z"/>
<path class="st0" d="M432.2,341.8H445c0.9,0,1.7,0.8,1.7,1.7v6.4c0,0.9-0.8,1.7-1.7,1.7h-12.8c-0.9,0-1.7-0.8-1.7-1.7v-6.4
	C430.5,342.6,431.2,341.8,432.2,341.8z"/>
<path class="st0" d="M453.4,341.8h12.8c0.9,0,1.7,0.8,1.7,1.7v6.4c0,0.9-0.8,1.7-1.7,1.7h-12.8c-0.9,0-1.7-0.8-1.7-1.7v-6.4
	C451.7,342.6,452.5,341.8,453.4,341.8z"/>
<path class="st0" d="M347.2,356.3H360c0.9,0,1.7,0.8,1.7,1.7v6.4c0,0.9-0.8,1.7-1.7,1.7h-12.8c-0.9,0-1.7-0.8-1.7-1.7V358
	C345.5,357.1,346.3,356.3,347.2,356.3z"/>
<path class="st0" d="M368.4,356.3h12.8c0.9,0,1.7,0.8,1.7,1.7v6.4c0,0.9-0.8,1.7-1.7,1.7h-12.8c-0.9,0-1.7-0.8-1.7-1.7V358
	C366.7,357.1,367.5,356.3,368.4,356.3z"/>
<path class="st0" d="M389.7,356.3h12.8c0.9,0,1.7,0.8,1.7,1.7v6.4c0,0.9-0.8,1.7-1.7,1.7h-12.8c-0.9,0-1.7-0.8-1.7-1.7V358
	C388,357.1,388.8,356.3,389.7,356.3z"/>
<path class="st0" d="M410.9,356.3h12.8c0.9,0,1.7,0.8,1.7,1.7v6.4c0,0.9-0.8,1.7-1.7,1.7h-12.8c-0.9,0-1.7-0.8-1.7-1.7V358
	C409.2,357.1,410,356.3,410.9,356.3z"/>
<path class="st0" d="M432.2,356.3H445c0.9,0,1.7,0.8,1.7,1.7v6.4c0,0.9-0.8,1.7-1.7,1.7h-12.8c-0.9,0-1.7-0.8-1.7-1.7V358
	C430.5,357.1,431.2,356.3,432.2,356.3z"/>
<path class="st0" d="M453.4,356.3h12.8c0.9,0,1.7,0.8,1.7,1.7v6.4c0,0.9-0.8,1.7-1.7,1.7h-12.8c-0.9,0-1.7-0.8-1.7-1.7V358
	C451.7,357.1,452.5,356.3,453.4,356.3z"/>
<path class="st2" d="M347.2,202H360c0.9,0,1.7,0.8,1.7,1.7v112.5c0,0.9-0.8,1.7-1.7,1.7h-12.8c-0.9,0-1.7-0.8-1.7-1.7V203.7
	C345.5,202.8,346.3,202,347.2,202z"/>
<path class="st6" d="M345.5,211.3h16.2"/>
<path class="st6" d="M345.5,223.5h16.2"/>
<path class="st6" d="M345.5,235.7h16.2"/>
<path class="st6" d="M345.5,247.9h16.2"/>
<path class="st6" d="M345.5,260.1h16.2"/>
<path class="st6" d="M345.5,272.3h16.2"/>
<path class="st6" d="M345.5,284.5h16.2"/>
<path class="st6" d="M345.5,296.7h16.2"/>
<path class="st6" d="M345.5,308.9h16.2"/>
<path class="st2" d="M368.4,202h12.8c0.9,0,1.7,0.8,1.7,1.7v112.5c0,0.9-0.8,1.7-1.7,1.7h-12.8c-0.9,0-1.7-0.8-1.7-1.7V203.7
	C366.7,202.8,367.5,202,368.4,202z"/>
<path class="st6" d="M366.7,211.3H383"/>
<path class="st6" d="M366.7,223.5H383"/>
<path class="st6" d="M366.7,235.7H383"/>
<path class="st6" d="M366.7,247.9H383"/>
<path class="st6" d="M366.7,260.1H383"/>
<path class="st6" d="M366.7,272.3H383"/>
<path class="st6" d="M366.7,284.5H383"/>
<path class="st6" d="M366.7,296.7H383"/>
<path class="st6" d="M366.7,308.9H383"/>
<path class="st2" d="M389.7,202h12.8c0.9,0,1.7,0.8,1.7,1.7v112.5c0,0.9-0.8,1.7-1.7,1.7h-12.8c-0.9,0-1.7-0.8-1.7-1.7V203.7
	C388,202.8,388.8,202,389.7,202z"/>
<path class="st6" d="M388,211.3h16.2"/>
<path class="st6" d="M388,223.5h16.2"/>
<path class="st6" d="M388,235.7h16.2"/>
<path class="st6" d="M388,247.9h16.2"/>
<path class="st6" d="M388,260.1h16.2"/>
<path class="st6" d="M388,272.3h16.2"/>
<path class="st6" d="M388,284.5h16.2"/>
<path class="st6" d="M388,296.7h16.2"/>
<path class="st6" d="M388,308.9h16.2"/>
<path class="st2" d="M410.9,202h12.8c0.9,0,1.7,0.8,1.7,1.7v112.5c0,0.9-0.8,1.7-1.7,1.7h-12.8c-0.9,0-1.7-0.8-1.7-1.7V203.7
	C409.2,202.8,410,202,410.9,202z"/>
<path class="st6" d="M409.2,211.3h16.2"/>
<path class="st6" d="M409.2,223.5h16.2"/>
<path class="st6" d="M409.2,235.7h16.2"/>
<path class="st6" d="M409.2,247.9h16.2"/>
<path class="st6" d="M409.2,260.1h16.2"/>
<path class="st6" d="M409.2,272.3h16.2"/>
<path class="st6" d="M409.2,284.5h16.2"/>
<path class="st6" d="M409.2,296.7h16.2"/>
<path class="st6" d="M409.2,308.9h16.2"/>
<path class="st2" d="M432.2,202H445c0.9,0,1.7,0.8,1.7,1.7v112.5c0,0.9-0.8,1.7-1.7,1.7h-12.8c-0.9,0-1.7-0.8-1.7-1.7V203.7
	C430.5,202.8,431.2,202,432.2,202z"/>
<path class="st6" d="M430.5,211.3h16.2"/>
<path class="st6" d="M430.5,223.5h16.2"/>
<path class="st6" d="M430.5,235.7h16.2"/>
<path class="st6" d="M430.5,247.9h16.2"/>
<path class="st6" d="M430.5,260.1h16.2"/>
<path class="st6" d="M430.5,272.3h16.2"/>
<path class="st6" d="M430.5,284.5h16.2"/>
<path class="st6" d="M430.5,296.7h16.2"/>
<path class="st6" d="M430.5,308.9h16.2"/>
<path class="st2" d="M453.4,202h12.8c0.9,0,1.7,0.8,1.7,1.7v112.5c0,0.9-0.8,1.7-1.7,1.7h-12.8c-0.9,0-1.7-0.8-1.7-1.7V203.7
	C451.7,202.8,452.5,202,453.4,202z"/>
<path class="st6" d="M451.7,211.3H468"/>
<path class="st6" d="M451.7,223.5H468"/>
<path class="st6" d="M451.7,235.7H468"/>
<path class="st6" d="M451.7,247.9H468"/>
<path class="st6" d="M451.7,260.1H468"/>
<path class="st6" d="M451.7,272.3H468"/>
<path class="st6" d="M451.7,284.5H468"/>
<path class="st6" d="M451.7,296.7H468"/>
<path class="st6" d="M451.7,308.9H468"/>
<path class="st0" d="M510,235.7h88.5V411H510L510,235.7z"/>
<path class="st2" d="M515.9,247.4h77.4v9.9h-77.4V247.4z"/>
<path class="st2" d="M515.9,260.3h77.4v9.9h-77.4V260.3z"/>
<path class="st2" d="M515.9,273.2h77.4v9.9h-77.4V273.2z"/>
<path class="st2" d="M515.9,286.1h77.4v9.9h-77.4V286.1z"/>
<path class="st2" d="M515.9,299h77.4v9.9h-77.4V299z"/>
<path class="st2" d="M515.9,311.9h77.4v9.9h-77.4V311.9z"/>
<path class="st2" d="M515.9,324.8h77.4v9.9h-77.4V324.8z"/>
<path class="st2" d="M515.9,337.7h77.4v9.9h-77.4V337.7z"/>
<path class="st2" d="M515.9,350.6h77.4v9.9h-77.4V350.6z"/>
<path class="st2" d="M504.9,235.5h98.6v6.1h-98.6V235.5z"/>
<path class="st2" d="M678.7,80h47.5c2.5,0,4.6,2.1,4.6,4.6v44.8c0,2.5-2.1,4.6-4.6,4.6h-47.5c-2.5,0-4.6-2.1-4.6-4.6V84.6
	C674.1,82,676.1,80,678.7,80z"/>
<path class="st0" d="M752.5,411H652.3V107.2h33.3v-3.8h33.6v3.8h33.3L752.5,411z"/>
<g>
	<path class="st7" d="M685.6,115.2h33.6"/>
	<path class="st7" d="M685.6,128.1h33.6"/>
	<path class="st7" d="M685.6,141h33.6"/>
	<path class="st7" d="M685.6,153.9h33.6"/>
	<path class="st7" d="M685.6,166.8h33.6"/>
	<path class="st7" d="M685.6,179.7h33.6"/>
	<path class="st7" d="M685.6,192.6h33.6"/>
	<path class="st7" d="M685.6,205.5h33.6"/>
	<path class="st7" d="M685.6,218.4h33.6"/>
	<path class="st7" d="M685.6,231.3h33.6"/>
	<path class="st7" d="M685.6,244.2h33.6"/>
	<path class="st7" d="M685.6,257.1h33.6"/>
	<path class="st7" d="M685.6,270h33.6"/>
	<path class="st7" d="M685.6,282.9h33.6"/>
	<path class="st7" d="M685.6,295.8h33.6"/>
	<path class="st7" d="M685.6,308.7h33.6"/>
	<path class="st7" d="M685.6,321.6h33.6"/>
	<path class="st7" d="M685.6,334.5h33.6"/>
	<path class="st7" d="M685.6,347.4h33.6"/>
	<path class="st7" d="M685.6,360.3h33.6"/>
	<path class="st7" d="M719.2,119.4h33.6"/>
	<path class="st7" d="M719.2,132.3h33.6"/>
	<path class="st7" d="M719.2,145.2h33.6"/>
	<path class="st7" d="M719.2,158.1h33.6"/>
	<path class="st7" d="M719.2,171h33.6"/>
	<path class="st7" d="M719.2,183.9h33.6"/>
	<path class="st7" d="M719.2,196.8h33.6"/>
	<path class="st7" d="M719.2,209.7h33.6"/>
	<path class="st7" d="M719.2,222.6h33.6"/>
	<path class="st7" d="M719.2,235.5h33.6"/>
	<path class="st7" d="M719.2,248.4h33.6"/>
	<path class="st7" d="M719.2,261.3h33.6"/>
	<path class="st7" d="M719.2,274.1h33.6"/>
	<path class="st7" d="M719.2,287h33.6"/>
	<path class="st7" d="M719.2,299.9h33.6"/>
	<path class="st7" d="M719.2,312.8h33.6"/>
	<path class="st7" d="M719.2,325.7h33.6"/>
	<path class="st7" d="M719.2,338.6h33.6"/>
	<path class="st7" d="M719.2,351.5h33.6"/>
	<path class="st7" d="M652.3,119.4h33.2"/>
	<path class="st7" d="M652.3,132.3h33.2"/>
	<path class="st7" d="M652.3,145.2h33.2"/>
	<path class="st7" d="M652.3,158.1h33.2"/>
	<path class="st7" d="M652.3,171h33.2"/>
	<path class="st7" d="M652.3,183.9h33.2"/>
	<path class="st7" d="M652.3,196.8h33.2"/>
	<path class="st7" d="M652.3,209.7h33.2"/>
	<path class="st7" d="M652.3,222.6h33.2"/>
	<path class="st7" d="M652.3,235.5h33.2"/>
	<path class="st7" d="M652.3,248.4h33.2"/>
	<path class="st7" d="M652.3,261.3h33.2"/>
	<path class="st7" d="M652.3,274.1h33.2"/>
	<path class="st7" d="M652.3,287h33.2"/>
	<path class="st7" d="M652.3,299.9h33.2"/>
	<path class="st7" d="M652.3,312.8h33.2"/>
	<path class="st7" d="M652.3,325.7h33.2"/>
	<path class="st7" d="M652.3,338.6h33.2"/>
	<path class="st7" d="M652.3,351.5h33.2"/>
	<path class="st8" d="M685.6,103.3v275"/>
	<path class="st7" d="M719.2,99.6V376"/>
</g>
<path class="st2" d="M802.2,249.8H871v14.6h-68.8V249.8z"/>
<path class="st2" d="M786.8,261.3h99.5V411h-99.5V261.3z"/>
<path class="st0" d="M882.8,274.8c0,2.9-2.4,5.3-5.3,5.3h-81.8c-2.9,0-5.3-2.4-5.3-5.3s2.4-5.3,5.3-5.3h81.8
	C880.4,269.5,882.8,271.9,882.8,274.8L882.8,274.8z"/>
<path class="st0" d="M882.8,290c0,2.9-2.4,5.3-5.3,5.3h-81.8c-2.9,0-5.3-2.4-5.3-5.3s2.4-5.3,5.3-5.3h81.8
	C880.4,284.7,882.8,287.1,882.8,290L882.8,290z"/>
<path class="st0" d="M882.8,305.2c0,2.9-2.4,5.3-5.3,5.3h-81.8c-2.9,0-5.3-2.4-5.3-5.3s2.4-5.3,5.3-5.3h81.8
	C880.4,299.9,882.8,302.3,882.8,305.2L882.8,305.2z"/>
<path class="st0" d="M882.8,320.4c0,2.9-2.4,5.3-5.3,5.3h-81.8c-2.9,0-5.3-2.4-5.3-5.3s2.4-5.3,5.3-5.3h81.8
	C880.4,315.1,882.8,317.5,882.8,320.4L882.8,320.4z"/>
<path class="st0" d="M882.8,335.7c0,2.9-2.4,5.3-5.3,5.3h-81.8c-2.9,0-5.3-2.4-5.3-5.3s2.4-5.3,5.3-5.3h81.8
	C880.4,330.4,882.8,332.7,882.8,335.7L882.8,335.7z"/>
<path class="st0" d="M882.8,350.9c0,2.9-2.4,5.3-5.3,5.3h-81.8c-2.9,0-5.3-2.4-5.3-5.3s2.4-5.3,5.3-5.3h81.8
	C880.4,345.6,882.8,347.9,882.8,350.9L882.8,350.9z"/>
<path class="st2" d="M814,256.5h45.1v123.6H814V256.5z"/>
<path class="st0" d="M814,265.4h45.1V276H814V265.4z"/>
<path class="st0" d="M814,280.6h45.1v10.6H814V280.6z"/>
<path class="st0" d="M814,295.8h45.1v10.6H814V295.8z"/>
<path class="st0" d="M814,311h45.1v10.6H814V311z"/>
<path class="st0" d="M814,326.2h45.1v10.6H814V326.2z"/>
<path class="st0" d="M814,341.4h45.1V352H814V341.4z"/>
<path class="st0" d="M814,356.6h45.1v10.6H814V356.6z"/>
<path class="st2" d="M1032.8,195.3c0,1.3,1,2.3,2.3,2.3l0,0c1.3,0,2.3-1,2.3-2.3c0,0,0,0,0,0v-14.7c0-1.3-1-2.3-2.3-2.3l0,0
	c-1.3,0-2.3,1-2.3,2.3c0,0,0,0,0,0V195.3z"/>
<path class="st2" d="M970.7,195.3c0,1.3,1,2.3,2.3,2.3s2.3-1,2.3-2.3v-14.7c0-1.3-1-2.3-2.3-2.3s-2.3,1-2.3,2.3V195.3z"/>
<path class="st2" d="M982.5,146.7c0,1.3,1,2.3,2.3,2.3s2.3-1,2.3-2.3v-14.7c0-1.3-1-2.3-2.3-2.3s-2.3,1-2.3,2.3V146.7z"/>
<path class="st2" d="M1021,146.7c0,1.3,1,2.3,2.3,2.3c1.3,0,2.3-1,2.3-2.3c0,0,0,0,0,0v-14.7c0-1.3-1-2.3-2.3-2.3
	c-1.3,0-2.3,1-2.3,2.3L1021,146.7z"/>
<path class="st2" d="M970.7,186.7h66.7V411h-66.7V186.7z"/>
<path class="st2" d="M982.5,135.7h43v50.9h-43V135.7z"/>
<path class="st2" d="M989.5,135.7l14.6-44.8l14.6,44.8H989.5z"/>
<path class="st0" d="M992.7,141.1c-2,0-3.5,1.6-3.5,3.5v0v7.3h7.1v-7.3C996.3,142.7,994.7,141.1,992.7,141.1L992.7,141.1z"/>
<path class="st0" d="M1004,141.1c-2,0-3.5,1.6-3.5,3.5v7.3h7.1v-7.3C1007.6,142.7,1006,141.1,1004,141.1L1004,141.1L1004,141.1z"/>
<path class="st0" d="M1015.3,141.1c-2,0-3.5,1.6-3.5,3.5v0v7.3h7.1v-7.3C1018.9,142.7,1017.3,141.1,1015.3,141.1L1015.3,141.1z"/>
<path class="st0" d="M992.7,156.6c-2,0-3.5,1.6-3.5,3.5v7.3h7.1v-7.3C996.3,158.2,994.7,156.6,992.7,156.6L992.7,156.6L992.7,156.6z
	"/>
<path class="st0" d="M1004,156.6c-2,0-3.5,1.6-3.5,3.5c0,0,0,0,0,0v7.3h7.1v-7.3C1007.6,158.2,1006,156.6,1004,156.6L1004,156.6z"/>
<path class="st0" d="M1015.3,156.6c-2,0-3.5,1.6-3.5,3.5v7.3h7.1v-7.3C1018.9,158.2,1017.3,156.6,1015.3,156.6L1015.3,156.6
	L1015.3,156.6z"/>
<path class="st0" d="M992.7,171.2c-2,0-3.5,1.6-3.5,3.5v7.3h7.1v-7.3C996.3,172.8,994.7,171.2,992.7,171.2L992.7,171.2L992.7,171.2z
	"/>
<path class="st0" d="M1004,171.2c-2,0-3.5,1.6-3.5,3.5c0,0,0,0,0,0v7.3h7.1v-7.3C1007.6,172.8,1006,171.2,1004,171.2L1004,171.2z"/>
<path class="st0" d="M1015.3,171.2c-2,0-3.5,1.6-3.5,3.5v7.3h7.1v-7.3C1018.9,172.8,1017.3,171.2,1015.3,171.2L1015.3,171.2
	L1015.3,171.2z"/>
<path class="st0" d="M983.1,195.2c-2.4,0-4.3,1.9-4.3,4.3c0,0,0,0,0,0v8.8h8.5v-8.8C987.3,197.1,985.4,195.2,983.1,195.2
	L983.1,195.2z"/>
<path class="st0" d="M996.7,195.2c-2.4,0-4.3,1.9-4.3,4.3c0,0,0,0,0,0v8.8h8.5v-8.8C1000.9,197.1,999,195.2,996.7,195.2L996.7,195.2
	z"/>
<path class="st0" d="M1010.2,195.2c-2.4,0-4.3,1.9-4.3,4.3c0,0,0,0,0,0v8.8h8.5v-8.8C1014.5,197.1,1012.6,195.2,1010.2,195.2
	L1010.2,195.2z"/>
<path class="st0" d="M983.1,213.8c-2.4,0-4.3,1.9-4.3,4.3c0,0,0,0,0,0v8.8h8.5v-8.8C987.3,215.7,985.4,213.8,983.1,213.8
	L983.1,213.8z"/>
<path class="st0" d="M996.7,213.8c-2.4,0-4.3,1.9-4.3,4.3c0,0,0,0,0,0v8.8h8.5v-8.8C1000.9,215.7,999,213.8,996.7,213.8L996.7,213.8
	z"/>
<path class="st0" d="M1010.2,213.8c-2.4,0-4.3,1.9-4.3,4.3c0,0,0,0,0,0v8.8h8.5v-8.8C1014.5,215.7,1012.6,213.8,1010.2,213.8
	L1010.2,213.8z"/>
<path class="st0" d="M983.1,231.4c-2.4,0-4.3,1.9-4.3,4.3v0v8.8h8.5v-8.8C987.3,233.3,985.4,231.4,983.1,231.4
	C983.1,231.4,983.1,231.4,983.1,231.4z"/>
<path class="st0" d="M996.7,231.4c-2.4,0-4.3,1.9-4.3,4.3v0v8.8h8.5v-8.8C1000.9,233.3,999,231.4,996.7,231.4
	C996.7,231.4,996.7,231.4,996.7,231.4z"/>
<path class="st0" d="M1010.2,231.4c-2.4,0-4.3,1.9-4.3,4.3v0v8.8h8.5v-8.8C1014.5,233.3,1012.6,231.4,1010.2,231.4z"/>
<path class="st0" d="M1023.8,195.2c-2.4,0-4.3,1.9-4.3,4.3v8.8h8.5v-8.8C1028.1,197.1,1026.2,195.2,1023.8,195.2
	C1023.8,195.2,1023.8,195.2,1023.8,195.2L1023.8,195.2z"/>
<path class="st0" d="M1023.8,213.8c-2.4,0-4.3,1.9-4.3,4.3v8.8h8.5v-8.8C1028.1,215.7,1026.2,213.8,1023.8,213.8
	C1023.8,213.8,1023.8,213.8,1023.8,213.8L1023.8,213.8z"/>
<path class="st0" d="M1023.8,231.4c-2.4,0-4.3,1.9-4.3,4.3v8.8h8.5v-8.8C1028.1,233.3,1026.2,231.4,1023.8,231.4L1023.8,231.4
	L1023.8,231.4z"/>
<path class="st0" d="M983.1,251.1c-2.4,0-4.3,1.9-4.3,4.3v8.8h8.5v-8.8C987.3,253,985.4,251.1,983.1,251.1z"/>
<path class="st0" d="M996.7,251.1c-2.4,0-4.3,1.9-4.3,4.3v8.8h8.5v-8.8C1000.9,253,999,251.1,996.7,251.1z"/>
<path class="st0" d="M1010.2,251.1c-2.4,0-4.3,1.9-4.3,4.3v8.8h8.5v-8.8C1014.5,253.1,1012.6,251.1,1010.2,251.1z"/>
<path class="st0" d="M983.1,269.7c-2.3,0-4.3,1.9-4.3,4.3v8.8h8.5V274C987.3,271.6,985.4,269.7,983.1,269.7z"/>
<path class="st0" d="M996.7,269.7c-2.3,0-4.3,1.9-4.3,4.3v8.8h8.5V274C1000.9,271.6,999,269.7,996.7,269.7z"/>
<path class="st0" d="M1010.2,269.7c-2.4,0-4.3,1.9-4.3,4.3l0,0v8.8h8.5V274C1014.5,271.6,1012.6,269.7,1010.2,269.7z"/>
<path class="st0" d="M983.1,287.3c-2.4,0-4.3,1.9-4.3,4.3l0,0v8.8h8.5v-8.8C987.3,289.2,985.4,287.3,983.1,287.3
	C983.1,287.3,983.1,287.3,983.1,287.3z"/>
<path class="st0" d="M996.7,287.3c-2.4,0-4.3,1.9-4.3,4.3l0,0v8.8h8.5v-8.8C1000.9,289.2,999,287.3,996.7,287.3
	C996.7,287.3,996.7,287.3,996.7,287.3z"/>
<path class="st0" d="M1010.2,287.3c-2.4,0-4.3,1.9-4.3,4.3l0,0v8.8h8.5v-8.8C1014.5,289.2,1012.6,287.3,1010.2,287.3z"/>
<path class="st0" d="M1023.8,251.1c-2.4,0-4.3,1.9-4.3,4.3v8.8h8.5v-8.8C1028.1,253.1,1026.2,251.1,1023.8,251.1L1023.8,251.1z"/>
<path class="st0" d="M1023.8,269.7c-2.4,0-4.3,1.9-4.3,4.3v8.8h8.5V274C1028.1,271.7,1026.2,269.7,1023.8,269.7L1023.8,269.7z"/>
<path class="st0" d="M1023.8,287.3c-2.4,0-4.3,1.9-4.3,4.3v8.8h8.5v-8.8C1028.1,289.2,1026.2,287.3,1023.8,287.3L1023.8,287.3
	L1023.8,287.3z"/>
<path class="st0" d="M983.1,307.1c-2.4,0-4.3,1.9-4.3,4.3l0,0v8.8h8.5v-8.8C987.3,309,985.4,307.1,983.1,307.1
	C983.1,307.1,983.1,307.1,983.1,307.1z"/>
<path class="st0" d="M996.7,307.1c-2.4,0-4.3,1.9-4.3,4.3l0,0v8.8h8.5v-8.8C1000.9,309,999,307.1,996.7,307.1
	C996.7,307.1,996.7,307.1,996.7,307.1z"/>
<path class="st0" d="M1010.2,307.1c-2.4,0-4.3,1.9-4.3,4.3l0,0v8.8h8.5v-8.8C1014.5,309,1012.6,307.1,1010.2,307.1z"/>
<path class="st0" d="M983.1,325.7c-2.4,0-4.3,1.9-4.3,4.3l0,0v8.8h8.5v-8.8C987.3,327.6,985.4,325.7,983.1,325.7
	C983.1,325.7,983.1,325.7,983.1,325.7z"/>
<path class="st0" d="M996.7,325.7c-2.4,0-4.3,1.9-4.3,4.3l0,0v8.8h8.5v-8.8C1000.9,327.6,999,325.7,996.7,325.7
	C996.7,325.7,996.7,325.7,996.7,325.7z"/>
<path class="st0" d="M1010.2,325.7c-2.4,0-4.3,1.9-4.3,4.3l0,0v8.8h8.5v-8.8C1014.5,327.6,1012.6,325.7,1010.2,325.7z"/>
<path class="st0" d="M983.1,343.2c-2.4,0-4.3,1.9-4.3,4.3c0,0,0,0,0,0v8.8h8.5v-8.8C987.3,345.2,985.4,343.2,983.1,343.2z"/>
<path class="st0" d="M996.7,343.2c-2.4,0-4.3,1.9-4.3,4.3c0,0,0,0,0,0v8.8h8.5v-8.8C1000.9,345.2,999,343.2,996.7,343.2z"/>
<path class="st0" d="M1010.2,343.2c-2.4,0-4.3,1.9-4.3,4.3c0,0,0,0,0,0v8.8h8.5v-8.8C1014.5,345.2,1012.6,343.2,1010.2,343.2z"/>
<path class="st0" d="M1023.8,307.1c-2.4,0-4.3,1.9-4.3,4.3v8.8h8.5v-8.8C1028.1,309,1026.2,307.1,1023.8,307.1L1023.8,307.1
	L1023.8,307.1z"/>
<path class="st0" d="M1023.8,325.7c-2.4,0-4.3,1.9-4.3,4.3v8.8h8.5v-8.8C1028.1,327.6,1026.2,325.7,1023.8,325.7L1023.8,325.7
	L1023.8,325.7z"/>
<path class="st0" d="M1023.8,343.2c-2.4,0-4.3,1.9-4.3,4.3v8.8h8.5v-8.8C1028.1,345.2,1026.2,343.2,1023.8,343.2
	C1023.8,343.2,1023.8,343.2,1023.8,343.2L1023.8,343.2z"/>
<path class="st2" d="M968.8,186.7h70.5v3.3h-70.5L968.8,186.7z"/>
<path class="st2" d="M980.7,135.7h47.4v2.5h-47.4L980.7,135.7z"/>
<path class="st2" d="M1145.7,323.3c0,1.2-1,2.2-2.2,2.2l0,0h-28.9c-1.2,0-2.2-1-2.2-2.2l0,0c0-1.2,1-2.2,2.2-2.2h28.9
	C1144.7,321.1,1145.7,322.1,1145.7,323.3z"/>
<path class="st2" d="M1107,324.1h44.2v86.2H1107V324.1z"/>
<path class="st9" d="M1113.5,331.3h3.4c0.6,0,1.1,0.5,1.1,1.1v3.4c0,0.6-0.5,1.1-1.1,1.1h-3.4c-0.6,0-1.1-0.5-1.1-1.1v-3.4
	C1112.4,331.8,1112.9,331.3,1113.5,331.3z"/>
<path class="st9" d="M1122.8,331.3h3.4c0.6,0,1.1,0.5,1.1,1.1v3.4c0,0.6-0.5,1.1-1.1,1.1h-3.4c-0.6,0-1.1-0.5-1.1-1.1v-3.4
	C1121.7,331.8,1122.2,331.3,1122.8,331.3z"/>
<path class="st9" d="M1132.1,331.3h3.4c0.6,0,1.1,0.5,1.1,1.1v3.4c0,0.6-0.5,1.1-1.1,1.1h-3.4c-0.6,0-1.1-0.5-1.1-1.1v-3.4
	C1131,331.8,1131.5,331.3,1132.1,331.3z"/>
<path class="st9" d="M1141.3,331.3h3.4c0.6,0,1.1,0.5,1.1,1.1v3.4c0,0.6-0.5,1.1-1.1,1.1h-3.4c-0.6,0-1.1-0.5-1.1-1.1v-3.4
	C1140.2,331.8,1140.7,331.3,1141.3,331.3z"/>
<path class="st9" d="M1113.5,340.7h3.4c0.6,0,1.1,0.5,1.1,1.1v3.4c0,0.6-0.5,1.1-1.1,1.1h-3.4c-0.6,0-1.1-0.5-1.1-1.1v-3.4
	C1112.4,341.2,1112.9,340.7,1113.5,340.7z"/>
<path class="st9" d="M1122.8,340.7h3.4c0.6,0,1.1,0.5,1.1,1.1v3.4c0,0.6-0.5,1.1-1.1,1.1h-3.4c-0.6,0-1.1-0.5-1.1-1.1v-3.4
	C1121.7,341.2,1122.2,340.7,1122.8,340.7z"/>
<path class="st9" d="M1132.1,340.7h3.4c0.6,0,1.1,0.5,1.1,1.1v3.4c0,0.6-0.5,1.1-1.1,1.1h-3.4c-0.6,0-1.1-0.5-1.1-1.1v-3.4
	C1131,341.2,1131.5,340.7,1132.1,340.7z"/>
<path class="st9" d="M1141.3,340.7h3.4c0.6,0,1.1,0.5,1.1,1.1v3.4c0,0.6-0.5,1.1-1.1,1.1h-3.4c-0.6,0-1.1-0.5-1.1-1.1v-3.4
	C1140.2,341.2,1140.7,340.7,1141.3,340.7z"/>
<path class="st9" d="M1113.5,350.2h3.4c0.6,0,1.1,0.5,1.1,1.1v3.4c0,0.6-0.5,1.1-1.1,1.1h-3.4c-0.6,0-1.1-0.5-1.1-1.1v-3.4
	C1112.4,350.6,1112.9,350.2,1113.5,350.2z"/>
<path class="st9" d="M1122.8,350.2h3.4c0.6,0,1.1,0.5,1.1,1.1v3.4c0,0.6-0.5,1.1-1.1,1.1h-3.4c-0.6,0-1.1-0.5-1.1-1.1v-3.4
	C1121.7,350.6,1122.2,350.2,1122.8,350.2z"/>
<path class="st9" d="M1132.1,350.2h3.4c0.6,0,1.1,0.5,1.1,1.1v3.4c0,0.6-0.5,1.1-1.1,1.1h-3.4c-0.6,0-1.1-0.5-1.1-1.1v-3.4
	C1131,350.6,1131.5,350.2,1132.1,350.2z"/>
<path class="st9" d="M1141.3,350.2h3.4c0.6,0,1.1,0.5,1.1,1.1v3.4c0,0.6-0.5,1.1-1.1,1.1h-3.4c-0.6,0-1.1-0.5-1.1-1.1v-3.4
	C1140.2,350.6,1140.7,350.2,1141.3,350.2z"/>
<path class="st9" d="M1113.5,359.6h3.4c0.6,0,1.1,0.5,1.1,1.1v3.4c0,0.6-0.5,1.1-1.1,1.1h-3.4c-0.6,0-1.1-0.5-1.1-1.1v-3.4
	C1112.4,360.1,1112.9,359.6,1113.5,359.6z"/>
<path class="st9" d="M1122.8,359.6h3.4c0.6,0,1.1,0.5,1.1,1.1v3.4c0,0.6-0.5,1.1-1.1,1.1h-3.4c-0.6,0-1.1-0.5-1.1-1.1v-3.4
	C1121.7,360.1,1122.2,359.6,1122.8,359.6z"/>
<path class="st9" d="M1132.1,359.6h3.4c0.6,0,1.1,0.5,1.1,1.1v3.4c0,0.6-0.5,1.1-1.1,1.1h-3.4c-0.6,0-1.1-0.5-1.1-1.1v-3.4
	C1131,360.1,1131.5,359.6,1132.1,359.6z"/>
<path class="st9" d="M1141.3,359.6h3.4c0.6,0,1.1,0.5,1.1,1.1v3.4c0,0.6-0.5,1.1-1.1,1.1h-3.4c-0.6,0-1.1-0.5-1.1-1.1v-3.4
	C1140.2,360.1,1140.7,359.6,1141.3,359.6z"/>
<circle class="st10" cx="309.9" cy="148" r="12.1"/>
<path class="st11" d="M311.7,149.5c-0.1,0-0.6-0.3-0.3-1.2c0.9-1,1.5-2.3,1.5-3.6c0.1-1.7-1.2-3.1-2.9-3.2c-1.7-0.1-3.1,1.2-3.2,2.9
	c0,0.1,0,0.2,0,0.3c0,1.4,0.6,2.7,1.5,3.7c0.3,0.9-0.3,1.2-0.4,1.2c-1.7,0.6-3.7,1.7-3.7,2.9v0.4c0,1.5,2.9,1.9,5.7,1.9
	s5.6-0.3,5.6-1.9v-0.4C315.5,151.2,313.5,150.1,311.7,149.5L311.7,149.5z"/>
<path class="st12" d="M308.8,166.6v19"/>
<path class="st12" d="M308.8,189.6h54"/>
<path class="st13" d="M366.4,182.5h16.8c0.9,0,1.7,0.8,1.7,1.7v10.4c0,0.9-0.8,1.7-1.7,1.7h-16.8c-0.9,0-1.7-0.8-1.7-1.7v-10.4
	C364.7,183.3,365.5,182.5,366.4,182.5z"/>
<path class="st14" d="M1023.8,211.5c-3.7,0-6.7,3-6.7,6.7v11.7h13.3v-11.7C1030.5,214.5,1027.5,211.5,1023.8,211.5L1023.8,211.5z"/>
<circle class="st10" cx="599.9" cy="105" r="12.1"/>
<path class="st11" d="M601.7,106.5c-0.1,0-0.6-0.3-0.3-1.2c0.9-1,1.5-2.3,1.5-3.6c0.1-1.7-1.2-3.1-2.9-3.2c-1.7-0.1-3.1,1.2-3.2,2.9
	c0,0.1,0,0.2,0,0.3c0,1.4,0.6,2.7,1.5,3.7c0.3,0.9-0.3,1.2-0.4,1.2c-1.7,0.6-3.7,1.7-3.7,2.9v0.4c0,1.5,2.9,1.9,5.7,1.9
	s5.6-0.3,5.6-1.9v-0.4C605.5,108.2,603.5,107.1,601.7,106.5L601.7,106.5z"/>
<path class="st12" d="M598.8,123.6v42"/>
<path class="st15" d="M590.7,175.7H607v16.9h-16.3V175.7z"/>
<path class="st15" d="M908.1,196.1h16.3v16.9h-16.3V196.1z"/>
<circle class="st10" cx="854.8" cy="163.1" r="12.1"/>
<path class="st11" d="M856.6,164.6c-0.1,0-0.6-0.3-0.3-1.2c0.9-1,1.5-2.3,1.5-3.6c0.1-1.7-1.2-3.1-2.9-3.2c-1.7-0.1-3.1,1.2-3.2,2.9
	c0,0.1,0,0.2,0,0.3c0,1.4,0.6,2.7,1.5,3.7c0.3,0.9-0.3,1.2-0.4,1.2c-1.7,0.6-3.7,1.7-3.7,2.9v0.4c0,1.5,2.9,1.9,5.7,1.9
	s5.6-0.3,5.6-1.9v-0.4C860.4,166.3,858.4,165.2,856.6,164.6L856.6,164.6z"/>
<path class="st12" d="M853.7,181.7v19"/>
<path class="st12" d="M853.7,204.7h54"/>
<circle class="st10" cx="1114.7" cy="162" r="12.1"/>
<path class="st11" d="M1112.9,163.5c-1.8,0.6-3.8,1.7-3.8,2.9v0.4c0,1.5,2.9,1.9,5.6,1.9s5.7-0.3,5.7-1.9v-0.4c0-1.1-2-2.2-3.7-2.9
	c-0.1,0-0.7-0.4-0.4-1.2c0.9-1,1.5-2.3,1.5-3.7c0.1-1.7-1.2-3.1-2.9-3.2c-1.7-0.1-3.1,1.2-3.2,2.9c0,0.1,0,0.2,0,0.4
	c0,1.4,0.6,2.7,1.5,3.6C1113.5,163.2,1113,163.5,1112.9,163.5L1112.9,163.5z"/>
<path class="st12" d="M1115.8,180.6v39"/>
<path class="st12" d="M1115.8,220.6h-84"/>
</svg>
